<?xml version="1.0" encoding="utf-8"?>
<!-- Generator: Adobe Illustrator 27.9.0, SVG Export Plug-In . SVG Version: 6.00 Build 0)  -->
<svg version="1.1" id="vertex-svg" xmlns="http://www.w3.org/2000/svg" xmlns:xlink="http://www.w3.org/1999/xlink" x="0px" y="0px"
	 viewBox="0 0 500 500" enable-background="new 0 0 500 500" xml:space="preserve">
<path id="bottom-line" d="M91.8,367.6c0.3-0.6,0.5-1.2,0.8-1.7c4.4-7.3,8.8-14.6,13.2-21.9c0.6-1.1,1.4-1.6,2.6-1.4
	c0.4,0.1,0.8,0,1.2,0c95.4,0,190.8,0,286.2,0c3.4,0,2.5-0.4,4.2,2.3c4.2,6.9,8.4,13.9,12.6,20.9c0.4,0.6,0.6,1.2,0.9,1.9
	C306.2,367.6,199,367.6,91.8,367.6z"/>
<path id="v-v" d="M0,247.2c4.4,0.1,8.8,0.4,13.1,0.4c5.9,0,11.8-0.2,17.6-0.3c0.6,0,1.2,0,1.8,0c0.1,0.1,0.1,0.2,0.2,0.3
	c-0.2,0.2-0.4,0.5-0.7,0.6c-2.1,0.6-2.8,2.2-2.7,4.1c0.1,1.9,0.4,3.8,0.8,5.6c1.9,7.4,4.5,14.6,7.4,21.7
	c4.2,10.6,8.4,21.1,12.7,31.6c0.1,0.3,0.3,0.6,0.5,1.1c0.3-0.4,0.5-0.6,0.6-0.9c5.8-13.8,11.5-27.5,15.6-41.9
	c1.3-4.7,2.5-9.5,2.8-14.4c0-0.7,0-1.5,0-2.2c-0.1-2.4-1.2-4.2-3.7-4.8c-0.2-0.1-0.4-0.3-0.7-0.5c0.5-0.7,1.1-0.5,1.6-0.4
	c3.6,0.1,7.1,0.3,10.7,0.3c3.6,0,7.1-0.2,10.7-0.3c0.5,0,1.1,0,1.6,0c0,0.1,0,0.2,0.1,0.3c-0.2,0.2-0.4,0.4-0.6,0.5
	c-1.5,0.4-2.7,1.4-3.6,2.6c-1.2,1.6-2.4,3.3-3.4,5c-3.3,5.8-5.8,11.9-8.4,18c-7,16.3-14,32.6-21,48.9c-0.3,0.8-0.7,1.6-1.1,2.4
	c-5.6-0.7-11.2-0.5-16.8,0c-0.4-1-0.7-1.8-1-2.7c-7-19.5-14.7-38.7-22.5-57.8c-1.6-3.8-3.5-7.5-5.5-11.1c-0.9-1.6-2.3-3-3.6-4.4
	c-0.7-0.7-1.6-1.2-2.7-0.8C0,247.9,0,247.6,0,247.2z"/>
<path id="triangle" d="M252.7,100.5c25.8,42.8,51.5,85.6,77.2,128.2c-0.1,0.2-0.1,0.2-0.1,0.3c0,0-0.1,0.1-0.1,0.1c0,0-0.1,0-0.2,0
	c-51.1,0-102.1,0-153.2,0c-0.3,0-0.6,0-0.8-0.1C175.8,227.7,249.8,104.5,252.7,100.5z"/>
<path id="v-r" d="M219.8,285.8c0.2,0.4,0.2,0.6,0.4,0.8c5.7,7.8,11.4,15.6,17.1,23.3c2.5,3.3,5.1,6.4,7.8,9.5
	c1.2,1.3,2.5,2.5,3.9,3.6c0.6,0.5,1.5,0.7,2.3,1.1c0.2,0.1,0.4,0.3,0.6,0.8c-0.5,0-0.9,0.1-1.4,0.1c-4.5-0.1-9-0.3-13.5-0.2
	c-2.8,0-5.5,0.3-8.3,0.7c-1.3,0.2-2.1-0.2-2.8-1.4c-5-7.9-10-15.8-15.1-23.6c-1.4-2.2-3-4.4-4.7-6.4c-1-1.2-2.2-2.2-3.5-3
	c-1.4-0.9-3-1.1-4.7-0.4c-0.1,0.4-0.2,0.8-0.2,1.2c0.2,7.3,0.3,14.6,0.7,21.9c0.1,2.1,0.7,4.2,1.3,6.2c0.6,2.1,1.8,3.9,4.2,4.3
	c0.1,0,0.2,0.2,0.3,0.4c-0.5,0.6-1.2,0.3-1.8,0.3c-3.2-0.1-6.5-0.3-9.7-0.3c-6,0-12,0.2-18,0.3c-0.5,0-1,0-1.8,0
	c0.3-0.4,0.5-0.7,0.6-0.8c2.1-0.5,3.2-2,3.7-3.9c0.6-2.4,1.2-4.9,1.3-7.5c0.4-5.7,0.6-11.4,0.6-17.1c0-10.6-0.1-21.2-0.3-31.8
	c-0.1-3.6-0.3-7.3-1.3-10.8c-0.3-0.9-0.7-1.8-1.1-2.7c-0.6-1.1-1.4-1.8-2.6-2.1c-0.3-0.1-0.5-0.3-0.9-0.5c0.7-0.6,1.3-0.4,1.9-0.4
	c4.4,0.1,8.8,0.4,13.1,0.3c4.3-0.1,8.5-0.5,12.8-0.8c7.2-0.5,14.4-1.3,21.6-0.6c3.8,0.4,7.4,1.3,10.7,3.1c5.4,3.1,8.1,7.8,8.4,14
	c0.4,7.9-3.1,13.6-9.6,17.7c-3.4,2.1-7.1,3.5-11,4.4C220.6,285.6,220.3,285.6,219.8,285.8z M197.7,285.6c0.5,0.1,0.7,0.2,0.9,0.2
	c4.8,0.4,9.6,0.2,14.2-1.5c4.3-1.5,7-4.5,8.1-8.9c1.2-4.5,1.1-9-0.4-13.5c-1.7-5.2-5.1-8.8-10.6-10.2c-2.6-0.6-5.2-0.4-7.7,0
	c-1.3,0.2-2.6,0.5-4,0.7C197.8,263.6,197.8,274.6,197.7,285.6z"/>
<path id="v-x" d="M431.1,324.9c-8.7-0.5-17.4-0.4-26.2,0.2c0-0.1-0.1-0.3-0.1-0.4c0.2-0.2,0.4-0.4,0.7-0.5c1.4-0.2,2.5-0.8,3.5-1.8
	c2.5-2.4,5.1-4.9,7.5-7.4c7.9-8.3,15.7-16.6,23.6-24.8c0.4-0.4,0.7-0.8,1-1.2c-0.2-0.4-0.4-0.7-0.7-1c-8.5-10.9-16.9-21.8-25.4-32.6
	c-1.1-1.5-2.4-2.8-3.6-4.2c-1.2-1.3-2.6-2.3-4.3-2.8c-0.4-0.1-1-0.1-0.8-1c5.9-0.1,11.8,0.5,17.7,0.3c5.9-0.1,11.7-0.2,17.7,0
	c-0.3,0.2-0.5,0.5-0.8,0.6c-2.4,0.9-3,1.9-2.1,4.3c0.8,2,1.8,4,2.9,5.9c3.8,6.2,8.3,11.8,12.6,17.5c0.1,0.2,0.3,0.3,0.6,0.5
	c0.4-0.3,0.7-0.6,1-1c4.5-5.7,8.6-11.5,12.3-17.8c0.7-1.2,1.3-2.4,1.9-3.7c0.3-0.7,0.5-1.4,0.5-2.2c0.1-2.1-0.7-3.1-2.7-3.6
	c-0.5-0.1-1.1,0.1-1.3-0.9c0.6,0,1.1-0.1,1.6-0.1c4.1,0.1,8.2,0.3,12.3,0.4c3.4,0,6.8-0.2,10.2-0.3c0.6,0,1.2,0,2.2,0
	c-0.5,0.5-0.6,0.8-0.8,0.8c-3.5,0.6-6,2.8-8.3,5.2c-5.4,5.8-10.7,11.6-16.1,17.4c-2.8,2.9-5.6,5.8-8.4,8.7c-0.3,0.3-0.5,0.6-0.9,1
	c0.3,0.4,0.5,0.8,0.7,1.1c9.8,11.9,19.5,23.8,29.3,35.7c1.1,1.4,2.4,2.7,3.6,4c1.3,1.4,2.7,2.5,4.6,2.9c0.2,0,0.4,0.3,0.7,0.4
	c-0.6,0.7-1.3,0.4-1.8,0.4c-5.9-0.1-11.8-0.3-17.6-0.3c-4.8,0-9.7,0.2-14.5,0.4c-0.6,0-1.2,0-2.3,0c0.5-0.5,0.7-0.7,0.9-0.8
	c0.3-0.1,0.6-0.1,0.8-0.1c1.3-0.4,1.8-1.1,1.7-2.4c-0.1-0.7-0.3-1.5-0.7-2.1c-1.2-2.1-2.4-4.2-3.9-6.1c-4.1-5.5-8.4-11-12.6-16.5
	c-1-1.3-2-2.6-3.1-4c-0.3,0.3-0.5,0.4-0.7,0.6c-4.8,6.1-9.4,12.2-13.2,19c-1.1,2.1-1.9,4.3-2.8,6.5c-0.2,0.6-0.3,1.2-0.3,1.9
	c-0.1,2,0.7,3,2.7,3.3C430.6,324.2,430.6,324.2,431.1,324.9z"/>
<path id="v-e-1" d="M157.9,246.2c-1.7,6.4-2.2,12.6-2.1,19c-0.8,0-1.5,0-2.2,0c-0.1-0.9-0.3-1.8-0.4-2.6c-0.6-3.9-2.7-6.6-6.3-8.3
	c-2.2-1.1-4.6-1.6-7-1.9c-4.8-0.5-9.5-0.8-14.3-0.1c-0.3,0-0.7,0.1-1,0.2c-0.9,0.1-1.3,0.6-1.3,1.5c-0.1,1.3-0.3,2.6-0.3,4
	c-0.2,7.3-0.3,14.6-0.5,22c0,0.3,0.1,0.6,0.1,0.9c0.3,0.1,0.6,0.3,1,0.3c4.8,0.4,9.7,0.5,14.5-0.3c0.8-0.1,1.6-0.4,2.3-0.6
	c3-0.9,4.7-2.9,5.2-6c0.1-0.5,0.2-0.9,0.3-1.4c0-0.2,0.1-0.3,0.2-0.5c0.6,0,1.2,0,2,0c-0.2,3.9-0.5,7.9-0.6,11.8c-0.1,4,0,7.9,0,12
	c-0.8,0-1.5,0-2.4,0c-0.1-0.7-0.1-1.3-0.2-2c-0.4-3.4-2-5.9-5.3-7c-2-0.6-4-1.1-6.1-1.2c-3.2-0.2-6.5-0.1-9.7-0.1
	c-0.3,0-0.7,0.1-1,0.1c-0.5,2-0.3,29.8,0.3,32.4c0.7,0.1,1.5,0.2,2.3,0.3c6.4,0.6,12.7,0.5,18.9-0.9c6.3-1.4,11.2-4.8,14.3-10.5
	c0.4-0.8,0.9-1.5,1.4-2.4c0.7,0.3,1.3,0.6,2,1c-2.8,6.4-5.4,12.9-6.5,19.8c-6.6-1.4-13.1-1.2-19.6-1.3c-9.7,0-19.4,0-29.1,0.1
	c-2.4,0-4.8,0.2-7.3,0.3c-0.6,0-1.1,0-2.1,0c0.5-0.5,0.7-0.8,0.9-0.8c1.8-0.4,3-1.6,3.5-3.3c0.6-2.2,1.2-4.5,1.4-6.7
	c0.4-4.5,0.6-9.1,0.7-13.6c0.1-10.7,0.1-21.4-0.1-32.2c-0.1-4.3-0.5-8.6-0.9-12.9c-0.1-1.1-0.4-2.2-0.7-3.2
	c-0.6-1.9-1.7-3.5-3.9-4.1c-0.2-0.1-0.4-0.3-0.9-0.8c1.1-0.1,1.8-0.1,2.5-0.1c11.7,0.1,23.3,0.4,35,0.4c5.8,0,11.6-0.4,17.5-0.7
	c1.3-0.1,2.5-0.3,3.8-0.5C156.6,246.3,157.1,246.3,157.9,246.2z"/>
<path id="v-e-2" d="M335.6,324.9c0.5-0.4,0.6-0.7,0.8-0.7c2-0.4,3.1-1.8,3.6-3.6c0.6-2.3,1.2-4.7,1.4-7.1c0.4-6,0.6-12.1,0.6-18.1
	c0-10.3-0.1-20.6-0.3-31c-0.1-3.4-0.6-6.9-1-10.3c-0.1-1-0.6-2-0.9-2.9c-0.6-1.4-1.6-2.4-3.1-2.9c-0.3-0.1-0.6-0.3-0.9-0.5
	c0.4-0.8,1.1-0.6,1.6-0.5c3.1,0,6.1,0.1,9.2,0.2c13.4,0.4,26.8,0.5,40.1-0.2c2.5-0.1,5-0.6,7.6-0.9c0.4-0.1,0.9-0.1,1.4-0.1
	c-0.5,3.2-1.1,6.3-1.4,9.4c-0.3,3.1-0.4,6.3-0.5,9.6c-0.7,0-1.3,0-2.1,0c-0.1-0.7-0.2-1.3-0.2-1.9c-0.4-4.1-2.4-7.1-6.2-9
	c-2.3-1.1-4.7-1.7-7.1-2c-4.7-0.5-9.4-0.8-14.1-0.2c-0.3,0-0.6,0.1-0.9,0.1c-1.5,0.3-1.6,0.4-1.7,1.9c-0.3,6.6-0.6,13.1-0.8,19.7
	c-0.1,1.9-0.1,3.8-0.1,5.7c0,1.2,0.2,1.4,1.4,1.5c4.7,0.4,9.3,0.5,14-0.3c0.7-0.1,1.4-0.3,2-0.4c3.4-0.9,5.4-3.1,5.8-6.7
	c0.1-0.5,0.2-0.9,0.3-1.4c0.7,0,1.4,0,2.3,0c-0.7,7.8-1.1,15.7-0.6,23.8c-0.9,0.1-1.6,0.1-2.4,0.1c-0.1-0.5-0.2-1-0.2-1.4
	c-0.4-4.4-2.3-6.8-6.6-8c-1.4-0.4-2.9-0.7-4.4-0.8c-3.6-0.1-7.1-0.1-10.7-0.1c-0.2,0-0.3,0.1-0.5,0.1c-0.5,1.6-0.2,30.2,0.3,32.4
	c0.7,0.1,1.5,0.2,2.3,0.3c6.4,0.6,12.7,0.5,18.9-0.9c6.3-1.4,11.1-4.7,14.2-10.3c0.4-0.8,0.9-1.6,1.5-2.6c0.6,0.3,1.2,0.6,2,1
	c-2.9,6.4-5.4,12.9-6.5,19.8c-5.3-1.2-10.6-1.2-15.8-1.2c-11.1,0-22.2,0-33.2,0.1c-2.4,0-4.7,0.2-7.1,0.3
	C337,325,336.5,324.9,335.6,324.9z"/>
<path id="v-t" d="M304.5,325c-10.3-0.5-20.5-0.5-31.2,0c0.4-0.5,0.5-0.8,0.7-0.8c2.3-0.5,3.4-2.3,4-4.3c0.9-2.9,1.3-5.9,1.4-8.8
	c0.2-11.3,0.3-22.6,0.4-33.9c0-5.3,0-10.6-0.1-15.9c0-2.1-0.2-4.1-0.3-6.2c-0.1-1.4-0.3-1.5-1.7-1.6c-3.9-0.3-7.7-0.1-11.5,1
	c-6,1.7-9.9,5.4-11.8,11.3c-0.3,0.8-0.5,1.6-0.8,2.5c-0.9-0.2-1.7-0.4-2.7-0.7c1.9-7,3-13.9,3.1-21c24.2,1,48.2,1.1,72.3-0.1
	c-0.5,3.5-1.1,7.1-1.4,10.7c-0.3,3.5-0.3,7.1-0.5,10.7c-1,0-1.9,0-2.9,0c0-0.6-0.1-1.2-0.1-1.8c-0.1-1.5-0.1-3.1-0.3-4.6
	c-0.5-3-2.2-5.1-5-6.3c-2.2-1-4.5-1.4-6.9-1.5c-3-0.2-6.1-0.1-9.2-0.1c-0.3,0-0.7,0.1-1.2,0.2c-0.1,1.1-0.4,2.3-0.4,3.4
	c-0.1,12.9-0.3,25.8-0.3,38.7c0,4.5,0.1,9,0.3,13.5c0.2,3,0.6,6,1,8.9c0.1,1,0.5,1.9,0.9,2.8c0.7,1.6,1.8,2.8,3.6,3.2
	c0.2,0.1,0.4,0.2,0.7,0.4C304.6,324.6,304.5,324.8,304.5,325z"/>
</svg>
