<?xml version="1.0" encoding="utf-8"?>
<!-- Generator: Adobe Illustrator 27.9.0, SVG Export Plug-In . SVG Version: 6.00 Build 0)  -->
<svg version="1.1" id="gd-logo" xmlns="http://www.w3.org/2000/svg" xmlns:xlink="http://www.w3.org/1999/xlink" x="0px" y="0px"
	 viewBox="0 0 200 200" enable-background="new 0 0 200 200" xml:space="preserve">
<path id="gd-g_00000098901810223591988070000005539425244946990733_" fill="#221E1F" d="M103.8,69.8h26.8c24.7,0,39,14.3,39,34.3
	v0.2c0,20-14.6,34.9-39.4,34.9h-26.5V69.8z M123,86.7v35.4h7.8c11.6,0,19.2-6.3,19.2-17.5v-0.2c0-11.1-7.6-17.6-19.2-17.6H123z"/>
<path id="gd-g" fill="#DA2627" d="M32.7,104.6v-0.2c0-19.4,15.4-34.5,36.2-34.5c11.8,0,20.2,3.5,27.4,9.6l-11,13.1
	c-4.8-4-9.5-6.3-16.3-6.3c-9.7,0-17.2,8-17.2,18.1v0.2c0,10.8,7.6,18.5,18.3,18.5c0,0,0.1,0,0.1,0c5.9,0,10.7-4.9,10.7-10.7v-0.1
	H67.6V98.8h30.9v11.1c0,15.8-12.9,28.9-28.9,29c-0.1,0-0.2,0-0.4,0C48.3,139,32.7,124.7,32.7,104.6z"/>
<path id="gd-right-laurel" fill="#221E1F" d="M182.4,132.2c0,0-0.1-1.1-0.3-2.3c-0.2-1.2-0.4-2.6-0.5-3.2c-0.1-0.4,0.1-1,0.3-1.7
	c0.3-0.7,0.7-1.5,1-2.2c0.4-0.8,0.7-1.4,1-2c0.2-0.5,0.4-0.9,0.4-0.9s0.1,0.2,0.2,0.5c0.1,0.3,0.4,0.8,0.5,1.3
	c0.4,1.1,0.8,2.4,1,3.3c0.2,0.6-0.7,2.4-1.6,4.1C183.5,130.8,182.4,132.2,182.4,132.2z M189.6,121.4c0.1-0.3,0.3-0.7,0.4-1.1
	c0.1-0.4,0.2-0.9,0.4-1.3c0.6-1.8,0.8-3.8,0.5-4.3c-0.2-0.4-0.6-0.9-0.9-1.4c-0.3-0.5-0.7-1-1.1-1.5c-0.7-0.9-1.2-1.6-1.2-1.6
	s-0.1,0.4-0.2,0.9c-0.1,0.6-0.2,1.4-0.4,2.1c-0.2,0.8-0.3,1.7-0.3,2.4c-0.1,0.7-0.1,1.4,0.1,1.7c0.3,0.6,1,1.9,1.4,3
	c0.5,1.1,0.8,2.1,0.8,2.1S189.3,122.1,189.6,121.4z M193.1,109.8c0-0.2,0.1-0.5,0.1-0.8c0-0.7,0.1-1.6,0.1-2.6
	c0-1.9-0.3-3.9-0.7-4.3c-0.7-0.7-1.8-1.6-2.7-2.2c-0.4-0.3-0.8-0.6-1.1-0.9c-0.3-0.2-0.5-0.3-0.5-0.3s0,0.1,0,0.3c0,0.2,0,0.4,0,0.7
	c0,0.6,0.1,1.4,0.2,2.2c0.1,0.8,0.1,1.7,0.3,2.4c0.2,0.7,0.4,1.3,0.6,1.6c0.5,0.5,1.4,1.5,2.2,2.5c0.8,1,1.4,1.8,1.4,1.8
	S193,110,193.1,109.8z M193.2,96.9c-0.2-0.7-0.3-1.6-0.6-2.5c-0.3-0.9-0.6-1.8-1-2.5c-0.4-0.7-0.7-1.2-1-1.4c-0.9-0.4-2.1-1-3.2-1.4
	c-1.1-0.4-1.9-0.7-1.9-0.7s0.1,0.3,0.4,0.9c0.3,0.5,0.5,1.3,0.8,2c0.7,1.5,1.3,3.2,2.1,3.6c0.3,0.2,0.8,0.4,1.3,0.7
	c0.5,0.3,1,0.7,1.5,1c1,0.7,1.9,1.4,1.9,1.4S193.4,97.6,193.2,96.9z M190.2,85c-0.3-0.6-0.8-1.4-1.3-2.2c-0.5-0.8-1.1-1.6-1.7-2.2
	c-0.5-0.6-1-1-1.3-1.1c-1-0.2-2.4-0.4-3.5-0.5c-0.6-0.1-1.1-0.1-1.4-0.1c-0.4,0-0.6,0-0.6,0s0.3,0.3,0.6,0.8
	c0.3,0.5,0.8,1.1,1.4,1.7c0.5,0.6,1,1.3,1.6,1.9c0.5,0.5,1,0.9,1.4,1c0.7,0.2,2,0.5,3.2,0.9c0.6,0.2,1.1,0.4,1.5,0.5
	c0.4,0.2,0.6,0.2,0.6,0.2S190.5,85.7,190.2,85z M183.7,74.5c-0.5-0.5-1.1-1.2-1.8-1.8c-0.7-0.6-1.5-1.3-2.1-1.7
	c-0.7-0.4-1.3-0.7-1.6-0.7c-1,0.1-2.3,0.2-3.5,0.4c-1.1,0.2-2,0.4-2,0.4s0.3,0.2,0.8,0.6c0.2,0.2,0.5,0.4,0.8,0.6
	c0.3,0.2,0.6,0.5,0.9,0.7c0.7,0.5,1.4,1,2,1.4c0.6,0.4,1.2,0.7,1.6,0.7c0.7,0,2.1-0.1,3.3,0c1.2,0.1,2.3,0.2,2.3,0.2
	S184.1,75,183.7,74.5z M183.1,132.8c0,0,1.1,0,2.3-0.2c1.3-0.1,2.8-0.3,3.5-0.4c0.4-0.1,1.1-0.5,1.7-1.2c0.7-0.6,1.4-1.5,2-2.3
	c0.6-0.9,1.2-1.7,1.6-2.3c0.4-0.7,0.6-1.1,0.6-1.1s-0.2,0.1-0.6,0.2c-0.4,0.1-0.9,0.3-1.5,0.5c-1.2,0.4-2.6,0.7-3.6,0.9
	c-0.6,0.2-2.1,1.7-3.4,3.1C184.4,131.5,183.1,132.8,183.1,132.8z M190,122.9c0,0,1-0.3,2.3-0.7c1.2-0.4,2.5-1,3.3-1.4
	c0.4-0.2,0.9-0.8,1.4-1.6c0.5-0.8,0.9-1.8,1.3-2.8c0.4-1,0.7-2,0.8-2.7c0.2-0.7,0.3-1.2,0.3-1.2s-0.8,0.6-1.9,1.3
	c-0.5,0.3-1.1,0.7-1.6,1c-0.6,0.3-1.1,0.6-1.6,0.9c-0.6,0.3-1.4,2.2-2.4,3.9c-0.2,0.4-0.4,0.9-0.7,1.3c-0.2,0.4-0.4,0.7-0.6,1.1
	C190.2,122.5,190,122.9,190,122.9z M193.9,110.3c0,0,0.9-0.6,1.9-1.3c1-0.8,2.2-1.7,2.8-2.2c0.4-0.3,0.6-1,0.9-1.9
	c0.2-0.9,0.4-2,0.5-3.1c0-1.1,0-2.1,0-2.8c0-0.4,0-0.7,0-0.9c0-0.2,0-0.3,0-0.3s-0.1,0.2-0.4,0.5c-0.3,0.3-0.6,0.7-1,1.2
	c-0.8,1-1.8,2-2.5,2.7c-0.5,0.4-0.8,2.5-1.2,4.5c-0.2,1-0.4,1.9-0.6,2.6c-0.1,0.3-0.1,0.6-0.2,0.8
	C193.9,110.2,193.9,110.3,193.9,110.3z M194.3,98c0,0,0.7-0.8,1.5-1.8c0.4-0.5,0.8-1.1,1.2-1.6c0.3-0.5,0.6-1,0.8-1.3
	c0.5-0.8,0.4-3.1-0.1-5.2c-0.2-1-0.5-2-0.7-2.7c-0.3-0.7-0.4-1.2-0.4-1.2s-0.4,0.9-0.9,2.1c-0.5,1.1-1.2,2.5-1.7,3.3
	c-0.2,0.3-0.2,0.9-0.1,1.8c0,0.8,0.1,1.9,0.2,2.8c0.1,1,0.1,1.9,0.2,2.6C194.3,97.5,194.3,98,194.3,98z M191.5,85.7
	c0,0,0.1-0.2,0.3-0.6c0.2-0.4,0.4-1,0.6-1.5c0.4-1.2,0.9-2.6,1.1-3.3c0.2-0.5,0-1.2-0.3-2.1c-0.3-0.9-0.7-1.9-1.2-2.8
	c-0.5-0.9-1.1-1.8-1.5-2.4c-0.4-0.6-0.7-1-0.7-1s0,0.2-0.1,0.6c-0.1,0.4-0.1,1-0.2,1.6c-0.2,1.2-0.5,2.7-0.7,3.6
	c-0.1,0.3,0.1,1,0.3,1.8c0.3,0.8,0.7,1.7,1,2.7c0.3,0.9,0.7,1.8,0.9,2.5C191.4,85.3,191.5,85.7,191.5,85.7z M185.2,74.8
	c0,0,0.2-1.1,0.3-2.3c0.2-1.3,0.2-2.8,0.2-3.5c0-0.5-0.3-1.2-0.8-1.9c-0.5-0.8-1.2-1.6-1.9-2.4c-0.4-0.4-0.7-0.8-1-1.1
	c-0.4-0.3-0.7-0.6-1-0.9c-0.6-0.5-0.9-0.8-0.9-0.8s0.1,1,0.3,2.2c0.2,1.2,0.2,2.7,0.2,3.7c0,0.3,0.3,0.9,0.8,1.6
	c0.5,0.7,1,1.5,1.6,2.3c0.6,0.8,1.1,1.6,1.5,2.2C184.9,74.4,185.2,74.8,185.2,74.8z M174.8,138c1.3-1.4,2.7-2.8,2.7-3.5
	c0-1,0-2.4-0.1-3.5c0-0.5-0.1-1.1-0.1-1.4c0-0.4-0.1-0.6-0.1-0.6s-0.2,0.3-0.6,0.7c-0.4,0.4-1,1-1.5,1.6c-0.5,0.6-1.1,1.3-1.6,1.9
	c-0.5,0.6-0.8,1.2-0.8,1.6c0,0.7-0.2,2-0.4,3.3c-0.2,1.2-0.4,2.3-0.4,2.3S173.3,139.2,174.8,138z M172.4,141.1c0,0,1,0.2,2.3,0.5
	c1.2,0.2,2.8,0.5,3.5,0.6c0.4,0,1.2-0.2,2-0.6c0.8-0.4,1.8-1,2.6-1.7c0.8-0.7,1.6-1.3,2.2-1.8c0.5-0.5,0.9-0.9,0.9-0.9s-0.2,0-0.7,0
	c-0.4,0-0.9,0.1-1.6,0.1c-1.3,0-2.7,0-3.7-0.1c-0.6,0-2.5,1-4.1,2.1C173.9,140.1,172.4,141.1,172.4,141.1z"/>
<path id="gd-left-laurel" fill="#221E1F" d="M15.6,129.2c-0.9-1.7-1.8-3.5-1.6-4.1c0.3-0.9,0.7-2.3,1-3.3c0.2-0.5,0.4-1,0.5-1.3
	c0.1-0.3,0.2-0.5,0.2-0.5s0.2,0.3,0.4,0.9c0.3,0.5,0.7,1.2,1,2c0.3,0.8,0.7,1.5,1,2.2c0.3,0.7,0.4,1.3,0.3,1.7
	c-0.2,0.7-0.4,2-0.5,3.2c-0.2,1.2-0.3,2.3-0.3,2.3S16.7,130.8,15.6,129.2z M11,122.5c0,0,0.4-1,0.8-2.1c0.4-1.1,1.1-2.4,1.4-3
	c0.2-0.4,0.2-1,0.1-1.7c0-0.7-0.2-1.6-0.3-2.4c-0.2-0.8-0.3-1.6-0.4-2.1c-0.1-0.6-0.2-0.9-0.2-0.9s-0.6,0.7-1.2,1.6
	c-0.3,0.5-0.7,1-1.1,1.5c-0.3,0.5-0.6,1-0.9,1.4c-0.3,0.5-0.1,2.5,0.5,4.3c0.1,0.5,0.3,0.9,0.4,1.3c0.1,0.4,0.3,0.8,0.4,1.1
	C10.8,122.1,11,122.5,11,122.5z M7.2,110.1c0,0,0.6-0.9,1.4-1.8c0.8-1,1.7-2,2.2-2.5c0.3-0.3,0.5-0.9,0.6-1.6
	c0.2-0.7,0.2-1.6,0.3-2.4c0.1-0.8,0.2-1.6,0.2-2.2c0-0.3,0-0.5,0-0.7c0-0.2,0-0.3,0-0.3s-0.2,0.1-0.5,0.3c-0.3,0.2-0.7,0.5-1.1,0.9
	c-0.9,0.7-2,1.6-2.7,2.2c-0.4,0.4-0.7,2.4-0.7,4.3c0,0.9,0.1,1.9,0.1,2.6c0,0.3,0,0.6,0.1,0.8C7.1,110,7.2,110.1,7.2,110.1z M6.7,98
	c0,0,0.9-0.7,1.9-1.4c0.5-0.3,1-0.7,1.5-1c0.5-0.3,1-0.6,1.3-0.7c0.7-0.4,1.4-2.1,2.1-3.6c0.3-0.8,0.6-1.5,0.8-2
	c0.2-0.5,0.4-0.9,0.4-0.9s-0.8,0.3-1.9,0.7c-1.1,0.4-2.3,1-3.2,1.4c-0.3,0.1-0.6,0.6-1,1.4c-0.3,0.7-0.6,1.6-1,2.5
	c-0.3,0.9-0.5,1.8-0.6,2.5C6.8,97.6,6.7,98,6.7,98z M9.5,86.1c0,0,0.2-0.1,0.6-0.2c0.4-0.2,0.9-0.3,1.5-0.5c1.2-0.4,2.5-0.7,3.2-0.9
	c0.4-0.1,0.9-0.5,1.4-1c0.5-0.5,1-1.2,1.6-1.9c0.5-0.6,1-1.3,1.4-1.7c0.3-0.5,0.6-0.8,0.6-0.8s-0.2,0-0.6,0c-0.4,0-0.9,0.1-1.4,0.1
	c-1.1,0.1-2.5,0.3-3.5,0.5c-0.3,0.1-0.8,0.5-1.3,1.1c-0.5,0.6-1.2,1.3-1.7,2.2c-0.5,0.8-1,1.6-1.3,2.2C9.6,85.7,9.5,86.1,9.5,86.1z
	 M15.7,75.4c0,0,1.1-0.1,2.3-0.2c1.2-0.1,2.6-0.1,3.3,0c0.4,0,1-0.3,1.6-0.7c0.6-0.4,1.4-0.9,2-1.4c0.3-0.3,0.6-0.5,0.9-0.7
	c0.3-0.2,0.6-0.4,0.8-0.6c0.5-0.4,0.8-0.6,0.8-0.6s-0.9-0.2-2-0.4c-1.2-0.2-2.5-0.3-3.5-0.4c-0.3,0-0.9,0.2-1.6,0.7
	c-0.7,0.4-1.4,1.1-2.1,1.7c-0.7,0.6-1.4,1.3-1.8,1.8C16,75,15.7,75.4,15.7,75.4z M14.4,130.1c-1.3-1.5-2.8-3-3.4-3.1
	c-1-0.2-2.4-0.6-3.6-0.9c-0.6-0.2-1.1-0.4-1.5-0.5c-0.4-0.1-0.6-0.2-0.6-0.2s0.2,0.4,0.6,1.1c0.4,0.6,1,1.5,1.6,2.3
	c0.6,0.9,1.3,1.7,2,2.3c0.7,0.6,1.3,1.1,1.7,1.2c0.7,0.1,2.3,0.3,3.5,0.4c1.3,0.1,2.3,0.2,2.3,0.2S15.8,131.5,14.4,130.1z
	 M9.6,121.9c-0.2-0.3-0.4-0.7-0.6-1.1c-0.2-0.4-0.4-0.8-0.7-1.3c-1-1.7-1.9-3.6-2.4-3.9c-0.4-0.2-1-0.5-1.6-0.9
	c-0.6-0.3-1.1-0.7-1.6-1c-1-0.7-1.9-1.3-1.9-1.3s0.1,0.5,0.3,1.2c0.2,0.7,0.4,1.7,0.8,2.7c0.4,1,0.8,2,1.3,2.8
	c0.5,0.8,1,1.4,1.4,1.6c0.7,0.3,2,0.9,3.3,1.4c1.2,0.4,2.3,0.7,2.3,0.7S10,122.5,9.6,121.9z M6.2,110c-0.1-0.2-0.1-0.5-0.2-0.8
	c-0.1-0.7-0.3-1.6-0.6-2.6c-0.4-1.9-0.7-4-1.2-4.5c-0.7-0.7-1.7-1.8-2.5-2.7c-0.4-0.5-0.8-0.9-1-1.2c-0.3-0.3-0.4-0.5-0.4-0.5
	s0,0.1,0,0.3c0,0.2,0,0.5,0,0.9c0,0.8,0,1.8,0,2.8c0.1,1.1,0.3,2.2,0.5,3.1c0.2,0.9,0.5,1.6,0.9,1.9c0.6,0.5,1.8,1.4,2.8,2.2
	c1,0.8,1.9,1.3,1.9,1.3S6.2,110.2,6.2,110z M5.9,96.8c0.1-0.7,0-1.7,0.2-2.6c0.1-1,0.2-2,0.2-2.8c0.1-0.8,0.1-1.5-0.1-1.8
	c-0.5-0.9-1.2-2.2-1.7-3.3c-0.5-1.1-0.9-2.1-0.9-2.1s-0.2,0.5-0.4,1.2C2.9,86,2.7,87,2.4,88c-0.5,2.1-0.6,4.4-0.1,5.2
	c0.2,0.3,0.5,0.8,0.8,1.3C3.5,95,4,95.6,4.4,96.1c0.8,1,1.5,1.8,1.5,1.8S5.9,97.5,5.9,96.8z M9,84.6c0.3-0.7,0.6-1.5,0.9-2.5
	c0.3-0.9,0.7-1.9,1-2.7c0.3-0.8,0.4-1.4,0.3-1.8c-0.2-1-0.5-2.4-0.7-3.6c-0.1-0.6-0.2-1.2-0.2-1.6c0-0.4-0.1-0.6-0.1-0.6
	s-0.3,0.4-0.7,1c-0.4,0.6-0.9,1.5-1.5,2.4c-0.5,0.9-0.9,2-1.2,2.8c-0.3,0.9-0.4,1.6-0.3,2.1c0.2,0.7,0.7,2.2,1.1,3.3
	c0.2,0.6,0.4,1.1,0.6,1.5c0.2,0.4,0.3,0.6,0.3,0.6S8.8,85.3,9,84.6z M15.7,73.9c0.4-0.6,0.9-1.4,1.5-2.2c0.6-0.8,1.2-1.6,1.6-2.3
	c0.5-0.7,0.8-1.3,0.8-1.6c0-1,0.1-2.5,0.2-3.7c0.1-1.2,0.3-2.2,0.3-2.2s-0.4,0.3-0.9,0.8c-0.3,0.2-0.6,0.5-1,0.9
	c-0.3,0.3-0.7,0.7-1,1.1c-0.7,0.8-1.4,1.6-1.9,2.4c-0.5,0.8-0.8,1.5-0.8,1.9c0,0.7,0.1,2.2,0.2,3.5c0.1,1.3,0.3,2.3,0.3,2.3
	S15.3,74.4,15.7,73.9z M28.3,140.3c0,0-0.2-1.1-0.4-2.3c-0.2-1.2-0.3-2.6-0.4-3.3c0-0.4-0.3-1-0.8-1.6c-0.5-0.6-1.1-1.2-1.6-1.9
	c-0.5-0.6-1.1-1.2-1.5-1.6c-0.4-0.4-0.6-0.7-0.6-0.7s0,0.2-0.1,0.6c0,0.4-0.1,0.9-0.1,1.4c-0.1,1.1-0.1,2.5-0.1,3.5
	c0,0.7,1.3,2.1,2.7,3.5C26.8,139.2,28.3,140.3,28.3,140.3z M24.5,139.2c-1.7-1.1-3.5-2.1-4.1-2.1c-1,0.1-2.5,0.1-3.7,0.1
	c-0.6,0-1.2,0-1.6-0.1c-0.4,0-0.7,0-0.7,0s0.3,0.4,0.9,0.9c0.6,0.5,1.3,1.2,2.2,1.8c0.8,0.7,1.8,1.3,2.6,1.7c0.8,0.4,1.5,0.7,2,0.6
	c0.7-0.1,2.2-0.3,3.5-0.6c1.3-0.2,2.3-0.5,2.3-0.5S26.2,140.1,24.5,139.2z"/>
</svg>
